<svg width="16" height="16" viewBox="0 0 16 16" fill="none" xmlns="http://www.w3.org/2000/svg">
<g clip-path="url(#clip0_155_6628)">
<path d="M8 0C6.41775 0 4.87103 0.469192 3.55544 1.34824C2.23985 2.22729 1.21447 3.47672 0.608967 4.93853C0.00346625 6.40034 -0.15496 8.00887 0.153721 9.56072C0.462403 11.1126 1.22433 12.538 2.34315 13.6569C3.46197 14.7757 4.88743 15.5376 6.43928 15.8463C7.99113 16.155 9.59966 15.9965 11.0615 15.391C12.5233 14.7855 13.7727 13.7602 14.6518 12.4446C15.5308 11.129 16 9.58225 16 8C16 5.87827 15.1571 3.84344 13.6569 2.34315C12.1566 0.842855 10.1217 0 8 0ZM12 11.05C12.1326 11.1826 12.2071 11.3625 12.2071 11.55C12.2071 11.7375 12.1326 11.9174 12 12.05C11.8674 12.1826 11.6875 12.2571 11.5 12.2571C11.3125 12.2571 11.1326 12.1826 11 12.05L8 9.05L5 12.06C4.93434 12.1257 4.85639 12.1777 4.7706 12.2133C4.68481 12.2488 4.59286 12.2671 4.5 12.2671C4.40714 12.2671 4.3152 12.2488 4.2294 12.2133C4.14361 12.1777 4.06566 12.1257 4 12.06C3.93434 11.9943 3.88226 11.9164 3.84672 11.8306C3.81119 11.7448 3.7929 11.6529 3.7929 11.56C3.7929 11.4671 3.81119 11.3752 3.84672 11.2894C3.88226 11.2036 3.93434 11.1257 4 11.06L7 8.04L3.915 4.93C3.78239 4.79739 3.7079 4.61754 3.7079 4.43C3.7079 4.24246 3.78239 4.06261 3.915 3.93C4.04761 3.79739 4.22747 3.72289 4.415 3.72289C4.60254 3.72289 4.78239 3.79739 4.915 3.93L8 7.05L11.085 3.965C11.1507 3.89934 11.2286 3.84725 11.3144 3.81172C11.4002 3.77618 11.4921 3.75789 11.585 3.75789C11.6779 3.75789 11.7698 3.77618 11.8556 3.81172C11.9414 3.84725 12.0193 3.89934 12.085 3.965C12.1507 4.03066 12.2027 4.10861 12.2383 4.1944C12.2738 4.28019 12.2921 4.37214 12.2921 4.465C12.2921 4.55786 12.2738 4.64981 12.2383 4.7356C12.2027 4.82139 12.1507 4.89934 12.085 4.965L9 8.04L12 11.05Z" fill="#BE0000"/>
</g>
<defs>
<clipPath id="clip0_155_6628">
<rect width="16" height="16" fill="white"/>
</clipPath>
</defs>
</svg>
