<svg width="17" height="17" viewBox="0 0 17 17" fill="none" xmlns="http://www.w3.org/2000/svg">
<g clip-path="url(#clip0_155_6620)">
<path d="M16.2285 8.5C16.2285 10.6217 15.3857 12.6566 13.8854 14.1569C12.3851 15.6571 10.3502 16.5 8.22852 16.5C6.10678 16.5 4.07195 15.6571 2.57166 14.1569C1.07137 12.6566 0.228516 10.6217 0.228516 8.5C0.228516 6.37827 1.07137 4.34344 2.57166 2.84315C4.07195 1.34285 6.10678 0.5 8.22852 0.5C10.3502 0.5 12.3851 1.34285 13.8854 2.84315C15.3857 4.34344 16.2285 6.37827 16.2285 8.5ZM12.2585 5.47C12.1871 5.39882 12.102 5.34277 12.0084 5.30522C11.9149 5.26766 11.8147 5.24936 11.7138 5.25141C11.613 5.25347 11.5136 5.27583 11.4217 5.31717C11.3297 5.35851 11.247 5.41797 11.1785 5.492L7.70552 9.917L5.61252 7.823C5.47034 7.69052 5.28229 7.6184 5.08799 7.62183C4.89369 7.62525 4.70831 7.70397 4.57089 7.84138C4.43348 7.97879 4.35477 8.16418 4.35134 8.35848C4.34791 8.55278 4.42004 8.74083 4.55252 8.883L7.19852 11.53C7.2698 11.6012 7.35468 11.6572 7.4481 11.6949C7.54152 11.7325 7.64156 11.7509 7.74226 11.7491C7.84296 11.7472 7.94225 11.7251 8.03421 11.684C8.12617 11.6429 8.20892 11.5837 8.27752 11.51L12.2695 6.52C12.4056 6.3785 12.4808 6.18928 12.4789 5.99296C12.4771 5.79664 12.3983 5.60888 12.2595 5.47H12.2585Z" fill="#0D5520"/>
</g>
<defs>
<clipPath id="clip0_155_6620">
<rect width="16" height="16" fill="white" transform="translate(0.228516 0.5)"/>
</clipPath>
</defs>
</svg>
